<?xml version="1.0" encoding="UTF-8"?><svg xmlns="http://www.w3.org/2000/svg" xmlns:xlink="http://www.w3.org/1999/xlink"><symbol viewBox="0 0 24 24" id="play-button-music-interface-sound" xmlns="http://www.w3.org/2000/svg"><path d="M12 0C5.383 0 0 5.383 0 12s5.383 12 12 12 12-5.383 12-12S18.617 0 12 0zm4.77 12.42l-7 4.5a.498.498 0 0 1-.51.019A.5.5 0 0 1 9 16.5v-9a.5.5 0 0 1 .77-.42l7 4.5a.5.5 0 0 1 0 .84z" fill="currentColor"/></symbol><symbol viewBox="0 0 24 24" id="security-protection-protect-shield-firewall-check" xmlns="http://www.w3.org/2000/svg"><g fill="currentColor"><path d="M11.723 21.463a.5.5 0 0 0-.688-.207c-.258.144-.522.289-.801.436a.502.502 0 0 1-.734-.442V13a.5.5 0 0 0-.5-.5H3.548a.499.499 0 0 1-.5-.477A55.93 55.93 0 0 1 3 9.5V4.915a.5.5 0 0 1 .333-.471L9.834 2.15a.5.5 0 0 1 .666.472V11a.5.5 0 0 0 .5.5h5.452c.136 0 .267.056.35.142l.065.117c.092.16.274.26.448.251L17.5 12c.304 0 .6.029.893.069a.5.5 0 0 0 .567-.477c.025-.657.04-1.344.04-2.092v-6a.5.5 0 0 0-.334-.472l-8.5-3a.5.5 0 0 0-.333 0l-8.5 3A.5.5 0 0 0 1 3.5v6c0 7.765 1.151 10.603 8.775 14.446a.5.5 0 0 0 .45 0 43.075 43.075 0 0 0 1.812-.969.5.5 0 0 0 .162-.725 6.487 6.487 0 0 1-.476-.789z"/><path d="M17.5 13a5.506 5.506 0 0 0-5.5 5.5c0 3.033 2.467 5.5 5.5 5.5s5.5-2.467 5.5-5.5-2.467-5.5-5.5-5.5zm2.854 4.354l-3.5 3.5a.498.498 0 0 1-.708 0l-1.5-1.5a.5.5 0 1 1 .708-.707l1.146 1.146 3.146-3.146a.5.5 0 1 1 .708.707z"/></g></symbol><symbol viewBox="0 0 24 24" id="security-protection-protect-shield-firewall-check-2" xmlns="http://www.w3.org/2000/svg"><path d="M20.666 3.028l-8.5-3a.497.497 0 0 0-.332 0l-8.5 3A.5.5 0 0 0 3 3.5v6c0 7.765 1.151 10.603 8.774 14.446a.504.504 0 0 0 .452 0C19.849 20.103 21 17.265 21 9.5v-6a.5.5 0 0 0-.334-.472zm-2.813 4.826l-7 7a.498.498 0 0 1-.707 0l-4-4a.5.5 0 1 1 .707-.707l3.647 3.646 6.646-6.646a.5.5 0 1 1 .707.707z" fill="currentColor"/></symbol></svg>