<?xml version="1.0" encoding="UTF-8"?><svg xmlns="http://www.w3.org/2000/svg" xmlns:xlink="http://www.w3.org/1999/xlink"><symbol viewBox="0 0 30 30" id="heart-romantic-love-valentines-day-celebration" xmlns="http://www.w3.org/2000/svg"><path d="M21.444 2.5c-2.647 0-4.976 2.087-6.444 4-1.469-1.913-3.797-4-6.444-4C4.106 2.5.5 6.185.5 10.5c0 2.157.902 3.923 2.36 5.337L15 27.5l12.14-11.663c1.458-1.414 2.36-3.18 2.36-5.337 0-4.315-3.606-8-8.056-8z" fill="none" stroke="currentColor" stroke-linecap="round" stroke-linejoin="round"/></symbol><symbol viewBox="0 0 206 87" id="logo" xmlns="http://www.w3.org/2000/svg"><g fill="currentColor" fill-rule="evenodd"><path d="M37.713 59.888c4.706 2.095 7.244-.575 9.613-5.896 1.913-4.297 2.746-9.198-1.551-11.111-4.604-2.05-9.769.187-12.183 5.61-1.777 3.99-.586 9.301 4.12 11.397zm17.97-56.609l.399-1.171c3.617-.964 8.553-1.587 12.338.099 6.65 2.961 13.254 9.334 11.568 13.12-1.32 2.967-4.256 4.602-5.656 6.921a32.136 32.136 0 0 0-1.8 3.49c20.841 6.337 21.274 4.813 22.605 5.405 6.446 2.87 12.468 9.72 10.008 15.245-1.913 4.297-4.653 3.568-8.337 1.928-5.218-2.323-9.58-7.944-28.226-14.53-2.437 4.923-5.09 10.607-7.312 15.871 1.43 5.05.334 10.815-1.943 15.93C49.305 88.098 25.537 90.267.694 81.903l.115-1.91c14.544 1.203 27.861-.346 36.145-7.937-11.347-2.6-14.546-14.69-9.99-24.922C31.335 37.31 41.3 33.655 49.69 37.39a30.98 30.98 0 0 1 4.161 2.22c.889-2.547 2.142-5.912 3.44-9.38-10.971-3.168-19.408-4.595-24.298-5.178-5.697-.698-8.939.801-12.929-.975-4.4-1.96-8.351-10.707-7.381-15.915.525-2.83 1.994-5.855 3.246-8.117l1.604-.022c2.247 6.518 3.27 8.077 6.805 9.773 4.615 2.3 23.784 8.26 35.836 12.032 1.242-3.615 2.2-6.867 2.712-8.845.422-1.774.23-2.718-1.043-4.265-1.432-1.741-3.67-3.596-6.16-5.44z"/><path d="M68.64 62.26v13.16c0 1.027.233 1.82.7 2.38.467.56 1.153.84 2.06.84.68 0 1.317-.14 1.91-.42a7.124 7.124 0 0 0 1.73-1.18V62.26h6.2V83H77.4c-.773 0-1.28-.347-1.52-1.04l-.38-1.2c-.4.387-.813.737-1.24 1.05-.427.313-.883.58-1.37.8-.487.22-1.01.393-1.57.52s-1.173.19-1.84.19c-1.133 0-2.137-.197-3.01-.59a6.193 6.193 0 0 1-2.21-1.65c-.6-.707-1.053-1.54-1.36-2.5-.307-.96-.46-2.013-.46-3.16V62.26h6.2zM87.04 83V53.06h6.2v11.4a9.462 9.462 0 0 1 2.63-1.83c.98-.46 2.13-.69 3.45-.69 1.08 0 2.08.233 3 .7.92.467 1.713 1.15 2.38 2.05.667.9 1.19 2.003 1.57 3.31.38 1.307.57 2.793.57 4.46 0 1.56-.217 3-.65 4.32-.433 1.32-1.04 2.467-1.82 3.44a8.384 8.384 0 0 1-2.8 2.28c-1.087.547-2.29.82-3.61.82a6.91 6.91 0 0 1-1.65-.18 5.641 5.641 0 0 1-2.46-1.3c-.34-.307-.67-.64-.99-1l-.22 1.04c-.093.427-.263.72-.51.88-.247.16-.57.24-.97.24h-4.12zm10.12-16.4c-.453 0-.863.043-1.23.13a4.52 4.52 0 0 0-1.02.37c-.313.16-.603.363-.87.61s-.533.53-.8.85v8.8c.467.52.973.883 1.52 1.09.547.207 1.12.31 1.72.31.573 0 1.1-.113 1.58-.34.48-.227.897-.59 1.25-1.09.353-.5.63-1.15.83-1.95.2-.8.3-1.773.3-2.92 0-1.093-.08-2.013-.24-2.76-.16-.747-.383-1.35-.67-1.81-.287-.46-.63-.79-1.03-.99-.4-.2-.847-.3-1.34-.3zm13.68 1.74h10.8v5h-10.8v-5zm22.6-15.28V83h-6.2V53.06h6.2zM153.76 83c-.587 0-1.03-.08-1.33-.24-.3-.16-.55-.493-.75-1l-.44-1.14c-.52.44-1.02.827-1.5 1.16-.48.333-.977.617-1.49.85a7.358 7.358 0 0 1-1.64.52c-.58.113-1.223.17-1.93.17-.947 0-1.807-.123-2.58-.37-.773-.247-1.43-.61-1.97-1.09a4.793 4.793 0 0 1-1.25-1.79c-.293-.713-.44-1.537-.44-2.47 0-.733.187-1.487.56-2.26.373-.773 1.02-1.477 1.94-2.11.92-.633 2.16-1.163 3.72-1.59 1.56-.427 3.527-.667 5.9-.72v-.88c0-1.213-.25-2.09-.75-2.63s-1.21-.81-2.13-.81c-.733 0-1.333.08-1.8.24-.467.16-.883.34-1.25.54s-.723.38-1.07.54c-.347.16-.76.24-1.24.24-.427 0-.79-.103-1.09-.31a2.302 2.302 0 0 1-.71-.77l-1.12-1.94a12.607 12.607 0 0 1 4.17-2.47c1.527-.54 3.163-.81 4.91-.81 1.253 0 2.383.203 3.39.61 1.007.407 1.86.973 2.56 1.7s1.237 1.59 1.61 2.59c.373 1 .56 2.093.56 3.28V83h-2.84zm-7.12-3.78c.8 0 1.5-.14 2.1-.42.6-.28 1.207-.733 1.82-1.36v-2.88c-1.24.053-2.26.16-3.06.32-.8.16-1.433.36-1.9.6-.467.24-.79.513-.97.82-.18.307-.27.64-.27 1 0 .707.193 1.203.58 1.49.387.287.953.43 1.7.43zM162 83V53.06h6.2v11.4a9.462 9.462 0 0 1 2.63-1.83c.98-.46 2.13-.69 3.45-.69 1.08 0 2.08.233 3 .7.92.467 1.713 1.15 2.38 2.05.667.9 1.19 2.003 1.57 3.31.38 1.307.57 2.793.57 4.46 0 1.56-.217 3-.65 4.32-.433 1.32-1.04 2.467-1.82 3.44a8.384 8.384 0 0 1-2.8 2.28c-1.087.547-2.29.82-3.61.82a6.91 6.91 0 0 1-1.65-.18 5.641 5.641 0 0 1-2.46-1.3c-.34-.307-.67-.64-.99-1l-.22 1.04c-.093.427-.263.72-.51.88-.247.16-.57.24-.97.24H162zm10.12-16.4c-.453 0-.863.043-1.23.13a4.52 4.52 0 0 0-1.02.37c-.313.16-.603.363-.87.61s-.533.53-.8.85v8.8c.467.52.973.883 1.52 1.09.547.207 1.12.31 1.72.31.573 0 1.1-.113 1.58-.34.48-.227.897-.59 1.25-1.09.353-.5.63-1.15.83-1.95.2-.8.3-1.773.3-2.92 0-1.093-.08-2.013-.24-2.76-.16-.747-.383-1.35-.67-1.81-.287-.46-.63-.79-1.03-.99-.4-.2-.847-.3-1.34-.3zm23.32-4.66c1.573 0 3.007.247 4.3.74 1.293.493 2.403 1.2 3.33 2.12.927.92 1.647 2.037 2.16 3.35.513 1.313.77 2.79.77 4.43 0 1.653-.257 3.143-.77 4.47s-1.233 2.453-2.16 3.38-2.037 1.64-3.33 2.14c-1.293.5-2.727.75-4.3.75-1.587 0-3.03-.25-4.33-.75-1.3-.5-2.42-1.213-3.36-2.14s-1.667-2.053-2.18-3.38c-.513-1.327-.77-2.817-.77-4.47 0-1.64.257-3.117.77-4.43.513-1.313 1.24-2.43 2.18-3.35.94-.92 2.06-1.627 3.36-2.12 1.3-.493 2.743-.74 4.33-.74zm0 16.78c1.427 0 2.477-.503 3.15-1.51.673-1.007 1.01-2.537 1.01-4.59s-.337-3.58-1.01-4.58-1.723-1.5-3.15-1.5c-1.467 0-2.54.5-3.22 1.5-.68 1-1.02 2.527-1.02 4.58s.34 3.583 1.02 4.59c.68 1.007 1.753 1.51 3.22 1.51z"/></g></symbol><symbol viewBox="0 0 24 24" id="play-button-music-interface-sound" xmlns="http://www.w3.org/2000/svg"><path d="M12 0C5.383 0 0 5.383 0 12s5.383 12 12 12 12-5.383 12-12S18.617 0 12 0zm4.77 12.42l-7 4.5a.498.498 0 0 1-.51.019A.5.5 0 0 1 9 16.5v-9a.5.5 0 0 1 .77-.42l7 4.5a.5.5 0 0 1 0 .84z" fill="currentColor"/></symbol><symbol viewBox="0 0 24 24" id="security-protection-protect-shield-firewall-check" xmlns="http://www.w3.org/2000/svg"><g fill="currentColor"><path d="M11.723 21.463a.5.5 0 0 0-.688-.207c-.258.144-.522.289-.801.436a.502.502 0 0 1-.734-.442V13a.5.5 0 0 0-.5-.5H3.548a.499.499 0 0 1-.5-.477A55.93 55.93 0 0 1 3 9.5V4.915a.5.5 0 0 1 .333-.471L9.834 2.15a.5.5 0 0 1 .666.472V11a.5.5 0 0 0 .5.5h5.452c.136 0 .267.056.35.142l.065.117c.092.16.274.26.448.251L17.5 12c.304 0 .6.029.893.069a.5.5 0 0 0 .567-.477c.025-.657.04-1.344.04-2.092v-6a.5.5 0 0 0-.334-.472l-8.5-3a.5.5 0 0 0-.333 0l-8.5 3A.5.5 0 0 0 1 3.5v6c0 7.765 1.151 10.603 8.775 14.446a.5.5 0 0 0 .45 0 43.075 43.075 0 0 0 1.812-.969.5.5 0 0 0 .162-.725 6.487 6.487 0 0 1-.476-.789z"/><path d="M17.5 13a5.506 5.506 0 0 0-5.5 5.5c0 3.033 2.467 5.5 5.5 5.5s5.5-2.467 5.5-5.5-2.467-5.5-5.5-5.5zm2.854 4.354l-3.5 3.5a.498.498 0 0 1-.708 0l-1.5-1.5a.5.5 0 1 1 .708-.707l1.146 1.146 3.146-3.146a.5.5 0 1 1 .708.707z"/></g></symbol><symbol viewBox="0 0 24 24" id="security-protection-protect-shield-firewall-check-2" xmlns="http://www.w3.org/2000/svg"><path d="M20.666 3.028l-8.5-3a.497.497 0 0 0-.332 0l-8.5 3A.5.5 0 0 0 3 3.5v6c0 7.765 1.151 10.603 8.774 14.446a.504.504 0 0 0 .452 0C19.849 20.103 21 17.265 21 9.5v-6a.5.5 0 0 0-.334-.472zm-2.813 4.826l-7 7a.498.498 0 0 1-.707 0l-4-4a.5.5 0 1 1 .707-.707l3.647 3.646 6.646-6.646a.5.5 0 1 1 .707.707z" fill="currentColor"/></symbol><symbol viewBox="0 0 30 30" id="social-media-social-media-logo-github-1" xmlns="http://www.w3.org/2000/svg"><path d="M15 0C6.729 0 0 6.75 0 15.047c0 7 4.785 13.282 11.378 14.938A.498.498 0 0 0 12 29.5v-3.807a.5.5 0 0 0-.384-.486 4.782 4.782 0 0 0-1.116-.126c-1.648 0-2.803-1.517-3.822-2.856-.162-.212-.32-.42-.477-.618.5.286.9.65 1.294 1.01.686.624 1.395 1.27 2.498 1.27.107.003 1.194-.001 1.86-.663A.5.5 0 0 0 12 22.87v-.868a.5.5 0 0 0-.34-.474C8.22 20.375 6 17.635 6 14.546c0-1.65.637-3.223 1.841-4.546a.5.5 0 0 0 .092-.53c-.454-1.086-.312-2.508.295-3.333.687.254 1.61.815 2.28 1.53.142.15.363.202.554.12a10.523 10.523 0 0 1 7.876 0c.191.081.412.031.554-.12.67-.715 1.593-1.276 2.28-1.53.607.825.749 2.247.295 3.334a.5.5 0 0 0 .092.529C23.363 11.323 24 12.895 24 14.546c0 3.158-2.394 6-5.957 7.074a.5.5 0 0 0-.33.636c.19.576.287 1.16.287 1.736V29.5a.5.5 0 0 0 .622.485C25.215 28.33 30 22.047 30 15.047 30 6.75 23.271 0 15 0z" fill="currentColor"/></symbol></svg>