<?xml version="1.0" encoding="UTF-8"?>
<svg version="1.1" viewBox="0 0 24 24" xmlns="http://www.w3.org/2000/svg" xmlns:xlink="http://www.w3.org/1999/xlink">
    <!--Generated by IJSVG (https://github.com/curthard89/IJSVG)-->
    <g fill="currentColor">
        <path d="M12,0c-6.61719,0 -12,5.3833 -12,12c0,6.6167 5.38281,12 12,12c6.61719,0 12,-5.3833 12,-12c0,-6.6167 -5.38281,-12 -12,-12Zm4.77051,12.4204l-7,4.5c-0.0820312,0.0532226 -0.176758,0.0795898 -0.270508,0.0795898c-0.0820313,0 -0.165039,-0.0205078 -0.239258,-0.0610352c-0.161133,-0.0878906 -0.260742,-0.255859 -0.260742,-0.438965v-9c0,-0.183105 0.0996094,-0.351074 0.260742,-0.438965c0.158203,-0.0869141 0.356445,-0.081543 0.509766,0.0185547l7,4.5c0.142578,0.0917968 0.229492,0.250488 0.229492,0.42041c0,0.169922 -0.0869141,0.328613 -0.229492,0.42041Z"></path>
    </g>
</svg>
