<?xml version="1.0" encoding="UTF-8"?>
<svg version="1.1" viewBox="0 0 24 24" xmlns="http://www.w3.org/2000/svg" xmlns:xlink="http://www.w3.org/1999/xlink">
    <!--Generated by IJSVG (https://github.com/curthard89/IJSVG)-->
    <g fill="currentColor">
        <path d="M17.666,3.03809l-8.5,-3c-0.107422,-0.0380859 -0.224609,-0.0380859 -0.332031,-6.93889e-18l-8.5,3c-0.200195,0.0708008 -0.333984,0.259766 -0.333984,0.47168v6c0,7.76465 1.15137,10.6025 8.77441,14.4463c0.071289,0.0356445 0.148438,0.0537109 0.225586,0.0537109c0.0771484,0 0.154297,-0.0180664 0.225586,-0.0537109c7.62305,-3.84375 8.77441,-6.68164 8.77441,-14.4463v-6c0,-0.211914 -0.133789,-0.400879 -0.333984,-0.47168Zm-2.8125,4.8252l-7,7c-0.0976562,0.0976562 -0.225586,0.146484 -0.353516,0.146484c-0.12793,0 -0.255859,-0.0488281 -0.353516,-0.146484l-4,-4c-0.195312,-0.195312 -0.195312,-0.511719 0,-0.707031c0.195312,-0.195312 0.511719,-0.195312 0.707031,0l3.64648,3.64648l6.64648,-6.64648c0.195312,-0.195312 0.511719,-0.195312 0.707031,0c0.195312,0.195312 0.195312,0.511719 -1e-07,0.707031Z" transform="translate(3, -0.0096435)"></path>
    </g>
</svg>
