<?xml version="1.0" encoding="UTF-8"?>
<svg version="1.1" viewBox="0 0 24 24" xmlns="http://www.w3.org/2000/svg" xmlns:xlink="http://www.w3.org/1999/xlink">
    <!--Generated by IJSVG (https://github.com/curthard89/IJSVG)-->
    <g fill="currentColor">
        <path d="M10.7231,21.4727c-0.0620117,-0.120605 -0.17041,-0.210449 -0.299805,-0.249512c-0.129883,-0.0400391 -0.270508,-0.0239258 -0.388184,0.0419922c-0.258301,0.144043 -0.521973,0.289062 -0.80127,0.436523c-0.153809,0.0810547 -0.346191,0.074707 -0.491699,-0.0136719c-0.149414,-0.0898437 -0.242188,-0.253906 -0.242188,-0.428223v-8.25c0,-0.276367 -0.223633,-0.5 -0.5,-0.5h-5.45166c-0.268066,0 -0.487305,-0.209473 -0.499512,-0.477051c-0.0346679,-0.763672 -0.0488281,-1.59375 -0.0488281,-2.52295v-4.58496c0,-0.211426 0.134277,-0.400879 0.333496,-0.471191l6.50098,-2.29443c0.149414,-0.0532227 0.32373,-0.0292969 0.454102,0.0634766c0.132324,0.09375 0.211426,0.246094 0.211426,0.408203v8.37891c0,0.276367 0.223633,0.5 0.5,0.5h5.45166c0.13623,0 0.267578,0.0561523 0.350586,0.141602l0.0649414,0.117676c0.0922852,0.160156 0.273438,0.260254 0.448242,0.250977c0.0068359,-0.0004883 0.177734,-0.0097656 0.18457,-0.0102539c0.303711,0 0.600098,0.0288086 0.892578,0.0688477c0.13916,0.0195313 0.281738,-0.0214844 0.389648,-0.112305c0.108398,-0.0908203 0.172852,-0.223145 0.178223,-0.364258c0.0249024,-0.657715 0.0395508,-1.34424 0.0395508,-2.09229v-6c0,-0.211914 -0.133789,-0.400879 -0.333496,-0.47168l-8.5,-3c-0.107422,-0.0380859 -0.225586,-0.0380859 -0.333008,-6.93889e-18l-8.5,3c-0.199707,0.0708008 -0.333496,0.259766 -0.333496,0.47168v6c0,7.76465 1.15137,10.6025 8.7749,14.4463c0.0708008,0.0356445 0.147949,0.0537109 0.225098,0.0537109c0.0771484,0 0.154297,-0.0180664 0.225098,-0.0537109c0.657227,-0.331055 1.24902,-0.651855 1.81152,-0.969238c0.123535,-0.0698242 0.211426,-0.188477 0.242188,-0.32666c0.03125,-0.138184 0.0019531,-0.282715 -0.0800781,-0.398438c-0.168457,-0.237305 -0.324219,-0.495605 -0.475586,-0.789062Z" transform="translate(1, -0.0096435)"></path>
        <path d="M5.5,0c-3.03271,0 -5.5,2.46729 -5.5,5.5c0,3.03271 2.46729,5.5 5.5,5.5c3.03271,0 5.5,-2.46729 5.5,-5.5c0,-3.03271 -2.46729,-5.5 -5.5,-5.5Zm2.85352,4.35352l-3.5,3.5c-0.0976562,0.0976562 -0.225586,0.146484 -0.353516,0.146484c-0.12793,0 -0.255859,-0.0488281 -0.353516,-0.146484l-1.5,-1.5c-0.195312,-0.195312 -0.195312,-0.511719 0,-0.707031c0.195312,-0.195312 0.511719,-0.195312 0.707031,0l1.14648,1.14648l3.14648,-3.14648c0.195312,-0.195312 0.511719,-0.195312 0.707031,0c0.195312,0.195312 0.195312,0.511719 -1e-07,0.707031Z" transform="translate(12, 13.0001)"></path>
    </g>
</svg>
