<?xml version="1.0" encoding="UTF-8"?>
<svg version="1.1" viewBox="0 0 30 30" xmlns="http://www.w3.org/2000/svg" xmlns:xlink="http://www.w3.org/1999/xlink">
    <!--Generated by IJSVG (https://github.com/curthard89/IJSVG)-->
    <g fill="currentColor">
        <path d="M15,0c-8.271,0 -15,6.75 -15,15.0469c0,7 4.78516,13.2822 11.3784,14.9385c0.150391,0.0371094 0.307617,0.0048828 0.429199,-0.0908203c0.121582,-0.0947269 0.192383,-0.240235 0.192383,-0.394532v-3.80664c0,-0.231445 -0.158691,-0.432617 -0.383789,-0.486328c-0.349121,-0.0839844 -0.724609,-0.125977 -1.11621,-0.125977c-1.64844,0 -2.80322,-1.5166 -3.82227,-2.85547c-0.162109,-0.212891 -0.320312,-0.420898 -0.477051,-0.618164c0.5,0.286133 0.899902,0.650391 1.29395,1.00879c0.686035,0.625 1.39551,1.27148 2.49854,1.27148c0.106934,0.0019531 1.19434,-0.0019531 1.85938,-0.663086c0.0942382,-0.09375 0.147461,-0.22168 0.147461,-0.354492v-0.868164c0,-0.214844 -0.137207,-0.405273 -0.34082,-0.473633c-3.43799,-1.15332 -5.65918,-3.89355 -5.65918,-6.98242c0,-1.65039 0.636719,-3.22266 1.84131,-4.5459c0.130859,-0.143555 0.166504,-0.350586 0.0917969,-0.529297c-0.453613,-1.08691 -0.3125,-2.50879 0.294922,-3.33398c0.686523,0.254883 1.61035,0.81543 2.27979,1.53027c0.142578,0.150391 0.362793,0.202148 0.554199,0.121094c2.49512,-1.01953 5.38086,-1.01953 7.87598,0c0.191406,0.0800781 0.412109,0.0302734 0.554199,-0.121094c0.669434,-0.714844 1.59326,-1.27539 2.27979,-1.53027c0.607422,0.825195 0.748535,2.24707 0.294922,3.33398c-0.074707,0.178711 -0.0390625,0.385742 0.0917969,0.529297c1.20459,1.32324 1.84131,2.89551 1.84131,4.5459c0,3.1582 -2.39404,6.00098 -5.95654,7.07422c-0.129395,0.0390625 -0.237305,0.12793 -0.299805,0.248047c-0.0620117,0.119141 -0.0732422,0.259766 -0.0307617,0.387695c0.19043,0.576172 0.287109,1.16016 0.287109,1.73633v5.50781c0,0.154297 0.0708008,0.299805 0.192383,0.394531c0.0888672,0.0693359 0.197266,0.105469 0.307617,0.105469c0.0405273,0 0.081543,-0.0048828 0.121582,-0.0146484c6.59326,-1.65625 11.3784,-7.93848 11.3784,-14.9385c0,-8.29687 -6.729,-15.0469 -15,-15.0469Z" transform="translate(0, -0.0001809)"></path>
    </g>
</svg>
